<svg xmlns="http://www.w3.org/2000/svg" viewBox="0 0 542.32 340.65"><title>behance</title><g id="Ebene_2" data-name="Ebene 2"><g id="Ebene_1-2" data-name="Ebene 1"><path d="M157.75,0c15.63,0,30.06,1.19,43.31,4.76A95.44,95.44,0,0,1,234.84,18c9.67,5.95,16.81,14.43,21.73,25.3,4.76,10.86,7.29,24.11,7.29,38.54,0,16.82-3.57,31.25-12.06,42.12-7.29,10.86-19.19,20.53-33.78,27.68,20.54,5.95,36.16,16.81,45.69,31.25a95.55,95.55,0,0,1,15.63,53c0,16.82-3.58,31.25-9.68,43.31a78.5,78.5,0,0,1-26.49,30.06,122.62,122.62,0,0,1-38.54,16.81c-14.44,3.58-28.87,6-43.31,6L0,332.32V0Zm-9.67,134.83c13.24,0,24.1-3.57,32.44-9.67s12-16.82,12-30.06c0-7.3-1.19-14.44-3.57-19.2s-5.95-8.48-10.86-12.06c-4.76-2.38-9.68-4.76-15.63-6s-12-1.19-19.2-1.19H73.52V135C73.52,134.83,148.08,134.83,148.08,134.83ZM151.65,277a108,108,0,0,0,20.53-2.38A40.55,40.55,0,0,0,189,267.28,45.42,45.42,0,0,0,201.06,254c2.38-6,4.76-13.25,4.76-21.73,0-16.82-4.76-28.87-14.44-37.36-9.67-7.29-22.92-10.86-38.54-10.86H73.52v92.72h78.13Z"/><path d="M384.1,275.76c9.68,9.68,24.11,14.44,43.31,14.44a65.41,65.41,0,0,0,35-9.67c9.68-7.3,15.63-14.44,18-21.73h58.93c-9.67,28.87-24.11,49.41-43.3,62.65-19.2,12.06-42.12,19.2-69.8,19.2A140.19,140.19,0,0,1,374.43,331a95.93,95.93,0,0,1-38.54-26.49,96.6,96.6,0,0,1-24.11-39.74c-5.95-15.63-8.48-32.44-8.48-51.79,0-18,2.38-35,8.48-50.6a131.11,131.11,0,0,1,25.3-40.92c10.86-10.87,24.11-20.54,38.54-26.49,15.63-6,31.25-9.68,50.6-9.68,20.54,0,38.54,3.58,54.17,12.06s27.68,18,37.35,32.44c9.68,13.25,16.82,28.87,21.73,45.69a255.67,255.67,0,0,1,2.38,53H367.29C367.29,248.08,374.43,266.09,384.1,275.76ZM460,149.27c-8.48-8.49-21.73-13.25-37.35-13.25A58.06,58.06,0,0,0,396.16,142c-7.29,3.58-12.06,8.49-16.82,13.25A32.41,32.41,0,0,0,370.86,172c-1.19,6-2.38,10.86-2.38,15.62H476.82C474.44,169.8,468.34,157.75,460,149.27ZM354,22.92H488.87V55.36H354Z"/></g></g></svg>