<svg xmlns="http://www.w3.org/2000/svg" viewBox="0 0 383.53 383.54"><defs><style>.cls-1{fill:#3c5a99;}.cls-2{fill:#fff;}</style></defs><title>facebook</title><g id="Ebene_2" data-name="Ebene 2"><g id="Layer_1" data-name="Layer 1"><path id="Blue" class="cls-1" d="M362.37,383.54a21.16,21.16,0,0,0,21.16-21.17V21.17A21.16,21.16,0,0,0,362.37,0H21.17A21.17,21.17,0,0,0,0,21.17v341.2a21.17,21.17,0,0,0,21.17,21.17Z"/><path id="f" class="cls-2" d="M264.63,383.54V235h49.86L322,177.13H264.63v-37c0-16.76,4.66-28.18,28.69-28.18H324V60.21a408.67,408.67,0,0,0-44.66-2.28c-44.2,0-74.45,27-74.45,76.51v42.69h-50V235h50V383.54Z"/></g></g></svg>