<svg xmlns="http://www.w3.org/2000/svg" viewBox="0 0 85 85"><defs><style>.cls-1{fill:#1d1d1b;}</style></defs><title>link</title><g id="Ebene_2" data-name="Ebene 2"><g id="Ebene_1-2" data-name="Ebene 1"><path class="cls-1" d="M75,62.15A12.86,12.86,0,0,1,62.15,75H22.85A12.86,12.86,0,0,1,10,62.15V22.85A12.86,12.86,0,0,1,22.85,10H42.5V0H22.85A22.88,22.88,0,0,0,0,22.85v39.3A22.88,22.88,0,0,0,22.85,85h39.3A22.88,22.88,0,0,0,85,62.15V42.5H75Z"/><path class="cls-1" d="M78.29,0H52.5V10H67.93L32.62,45.31l7.07,7.07L75,17.07V32.5H85V6.71A6.72,6.72,0,0,0,78.29,0Z"/></g></g></svg>